<?xml version="1.0" encoding="UTF-8" standalone="no"?>
<!DOCTYPE svg PUBLIC "-//W3C//DTD SVG 1.1//EN"
 "http://www.w3.org/Graphics/SVG/1.1/DTD/svg11.dtd">
<!-- Generated by graphviz version 2.44.0 (0)
 -->
<!-- Title: CUSTOMER_RELATIONSHIPS Pages: 1 -->
<svg width="2084pt" height="1907pt"
 viewBox="0.00 0.00 2083.90 1907.00" xmlns="http://www.w3.org/2000/svg" xmlns:xlink="http://www.w3.org/1999/xlink">
<g id="graph0" class="graph" transform="scale(1 1) rotate(0) translate(4 1903)">
<title>CUSTOMER_RELATIONSHIPS</title>
<polygon fill="white" stroke="transparent" points="-4,4 -4,-1903 2079.9,-1903 2079.9,4 -4,4"/>
<!-- customers -->
<g id="node1" class="node">
<title>customers</title>
<polygon fill="lightblue" stroke="black" points="418.9,-120.5 418.9,-263.5 776.9,-263.5 776.9,-120.5 418.9,-120.5"/>
<text text-anchor="middle" x="463.4" y="-188.3" font-family="Times-Roman" font-size="14.00">customers</text>
<polyline fill="none" stroke="black" points="507.9,-120.5 507.9,-263.5 "/>
<text text-anchor="start" x="515.9" y="-248.3" font-family="Times-Roman" font-size="14.00">id (PK)</text>
<text text-anchor="start" x="515.9" y="-233.3" font-family="Times-Roman" font-size="14.00">source_id (FK→customer_sources)</text>
<text text-anchor="start" x="515.9" y="-218.3" font-family="Times-Roman" font-size="14.00">channel_id (FK→customer_channels)</text>
<text text-anchor="start" x="515.9" y="-203.3" font-family="Times-Roman" font-size="14.00">owner_name</text>
<text text-anchor="start" x="515.9" y="-188.3" font-family="Times-Roman" font-size="14.00">created_by_name</text>
<text text-anchor="start" x="515.9" y="-173.3" font-family="Times-Roman" font-size="14.00">updated_by_external</text>
<text text-anchor="start" x="515.9" y="-158.3" font-family="Times-Roman" font-size="14.00">updated_by_name</text>
<text text-anchor="start" x="515.9" y="-143.3" font-family="Times-Roman" font-size="14.00">updated_at_src</text>
<text text-anchor="middle" x="642.4" y="-128.3" font-family="Times-Roman" font-size="14.00">...</text>
</g>
<!-- customer_sources -->
<g id="node3" class="node">
<title>customer_sources</title>
<polygon fill="lightblue" stroke="black" points="479.4,-0.5 479.4,-68.5 716.4,-68.5 716.4,-0.5 479.4,-0.5"/>
<text text-anchor="middle" x="550.4" y="-30.8" font-family="Times-Roman" font-size="14.00">customer_sources</text>
<polyline fill="none" stroke="black" points="621.4,-0.5 621.4,-68.5 "/>
<text text-anchor="start" x="629.4" y="-53.3" font-family="Times-Roman" font-size="14.00">id (PK)</text>
<text text-anchor="start" x="629.4" y="-38.3" font-family="Times-Roman" font-size="14.00">code</text>
<text text-anchor="start" x="629.4" y="-23.3" font-family="Times-Roman" font-size="14.00">name</text>
<text text-anchor="middle" x="668.9" y="-8.3" font-family="Times-Roman" font-size="14.00">updated_at</text>
</g>
<!-- customers&#45;&gt;customer_sources -->
<g id="edge1" class="edge">
<title>customers&#45;&gt;customer_sources</title>
<path fill="none" stroke="black" d="M597.9,-120.08C597.9,-106.06 597.9,-91.74 597.9,-78.97"/>
<polygon fill="black" stroke="black" points="601.4,-78.64 597.9,-68.64 594.4,-78.64 601.4,-78.64"/>
<text text-anchor="middle" x="630.9" y="-90.8" font-family="Times-Roman" font-size="14.00">source_id</text>
</g>
<!-- customer_channels -->
<g id="node4" class="node">
<title>customer_channels</title>
<polygon fill="lightblue" stroke="black" points="1584.9,-0.5 1584.9,-68.5 1830.9,-68.5 1830.9,-0.5 1584.9,-0.5"/>
<text text-anchor="middle" x="1660.4" y="-30.8" font-family="Times-Roman" font-size="14.00">customer_channels</text>
<polyline fill="none" stroke="black" points="1735.9,-0.5 1735.9,-68.5 "/>
<text text-anchor="start" x="1743.9" y="-53.3" font-family="Times-Roman" font-size="14.00">id (PK)</text>
<text text-anchor="start" x="1743.9" y="-38.3" font-family="Times-Roman" font-size="14.00">code</text>
<text text-anchor="start" x="1743.9" y="-23.3" font-family="Times-Roman" font-size="14.00">name</text>
<text text-anchor="middle" x="1783.4" y="-8.3" font-family="Times-Roman" font-size="14.00">updated_at</text>
</g>
<!-- customers&#45;&gt;customer_channels -->
<g id="edge2" class="edge">
<title>customers&#45;&gt;customer_channels</title>
<path fill="none" stroke="black" d="M777.16,-165.89C1000.2,-134.64 1375.87,-82.01 1574.88,-54.13"/>
<polygon fill="black" stroke="black" points="1575.39,-57.6 1584.81,-52.74 1574.42,-50.66 1575.39,-57.6"/>
<text text-anchor="middle" x="1355.4" y="-90.8" font-family="Times-Roman" font-size="14.00">channel_id</text>
</g>
<!-- contacts -->
<g id="node2" class="node">
<title>contacts</title>
<polygon fill="lightblue" stroke="black" points="654.9,-1755.5 654.9,-1898.5 1024.9,-1898.5 1024.9,-1755.5 654.9,-1755.5"/>
<text text-anchor="middle" x="692.4" y="-1823.3" font-family="Times-Roman" font-size="14.00">contacts</text>
<polyline fill="none" stroke="black" points="729.9,-1755.5 729.9,-1898.5 "/>
<text text-anchor="start" x="737.9" y="-1883.3" font-family="Times-Roman" font-size="14.00">id (PK)</text>
<text text-anchor="start" x="737.9" y="-1868.3" font-family="Times-Roman" font-size="14.00">customer_id (FK→customer_sources)</text>
<text text-anchor="start" x="737.9" y="-1853.3" font-family="Times-Roman" font-size="14.00">customer_id (FK→customer_documents)</text>
<text text-anchor="start" x="737.9" y="-1838.3" font-family="Times-Roman" font-size="14.00">customer_id (FK→customer_channels)</text>
<text text-anchor="start" x="737.9" y="-1823.3" font-family="Times-Roman" font-size="14.00">customer_id (FK→customers)</text>
<text text-anchor="start" x="737.9" y="-1808.3" font-family="Times-Roman" font-size="14.00">first_name</text>
<text text-anchor="start" x="737.9" y="-1793.3" font-family="Times-Roman" font-size="14.00">last_name</text>
<text text-anchor="start" x="737.9" y="-1778.3" font-family="Times-Roman" font-size="14.00">full_name</text>
<text text-anchor="middle" x="877.4" y="-1763.3" font-family="Times-Roman" font-size="14.00">...</text>
</g>
<!-- contacts&#45;&gt;customers -->
<g id="edge6" class="edge">
<title>contacts&#45;&gt;customers</title>
<path fill="none" stroke="black" d="M654.81,-1813.9C553.85,-1799.63 431.04,-1769.06 338.9,-1704 270.3,-1655.56 195.9,-1664.48 195.9,-1580.5 195.9,-1580.5 195.9,-1580.5 195.9,-693.5 195.9,-615.43 218.58,-598.55 233.9,-522 252.23,-430.36 211.03,-386.76 270.9,-315 306.16,-272.73 357.58,-245.1 409.24,-227.04"/>
<polygon fill="black" stroke="black" points="410.53,-230.29 418.88,-223.78 408.29,-223.66 410.53,-230.29"/>
<text text-anchor="middle" x="238.4" y="-1005.8" font-family="Times-Roman" font-size="14.00">customer_id</text>
</g>
<!-- contacts&#45;&gt;customer_sources -->
<g id="edge3" class="edge">
<title>contacts&#45;&gt;customer_sources</title>
<path fill="none" stroke="black" d="M1024.96,-1757.22C1027.95,-1756.45 1030.93,-1755.71 1033.9,-1755 1218.45,-1710.73 1869.9,-1770.28 1869.9,-1580.5 1869.9,-1580.5 1869.9,-1580.5 1869.9,-851 1869.9,-777.85 1885.16,-754.05 1855.9,-687 1808.33,-578 1727.41,-596.19 1675.9,-489 1635.55,-405.03 1665.79,-372.31 1642.9,-282 1624.15,-208.01 1641.49,-172.3 1585.9,-120 1524.57,-62.31 979.98,-43.45 726.56,-37.76"/>
<polygon fill="black" stroke="black" points="726.64,-34.26 716.56,-37.54 726.48,-41.26 726.64,-34.26"/>
<text text-anchor="middle" x="1912.4" y="-848.3" font-family="Times-Roman" font-size="14.00">customer_id</text>
</g>
<!-- contacts&#45;&gt;customer_channels -->
<g id="edge5" class="edge">
<title>contacts&#45;&gt;customer_channels</title>
<path fill="none" stroke="black" d="M1025.16,-1756.87C1028.08,-1756.21 1031,-1755.59 1033.9,-1755 1245.74,-1711.92 1990.9,-1796.67 1990.9,-1580.5 1990.9,-1580.5 1990.9,-1580.5 1990.9,-191 1990.9,-116.42 1914.48,-77.36 1841.07,-57.05"/>
<polygon fill="black" stroke="black" points="1841.77,-53.61 1831.2,-54.42 1839.97,-60.38 1841.77,-53.61"/>
<text text-anchor="middle" x="2033.4" y="-848.3" font-family="Times-Roman" font-size="14.00">customer_id</text>
</g>
<!-- customer_documents -->
<g id="node5" class="node">
<title>customer_documents</title>
<polygon fill="lightblue" stroke="black" points="980.4,-1455.5 980.4,-1703.5 1447.4,-1703.5 1447.4,-1455.5 980.4,-1455.5"/>
<text text-anchor="middle" x="1063.4" y="-1575.8" font-family="Times-Roman" font-size="14.00">customer_documents</text>
<polyline fill="none" stroke="black" points="1146.4,-1455.5 1146.4,-1703.5 "/>
<text text-anchor="start" x="1154.4" y="-1688.3" font-family="Times-Roman" font-size="14.00">id (PK)</text>
<text text-anchor="start" x="1154.4" y="-1673.3" font-family="Times-Roman" font-size="14.00">customer_id (FK→customer_sources)</text>
<text text-anchor="start" x="1154.4" y="-1658.3" font-family="Times-Roman" font-size="14.00">customer_id (FK→customer_channels)</text>
<text text-anchor="start" x="1154.4" y="-1643.3" font-family="Times-Roman" font-size="14.00">customer_id (FK→customers)</text>
<text text-anchor="start" x="1154.4" y="-1628.3" font-family="Times-Roman" font-size="14.00">verified_by (FK→users)</text>
<text text-anchor="start" x="1154.4" y="-1613.3" font-family="Times-Roman" font-size="14.00">created_by (FK→users)</text>
<text text-anchor="start" x="1154.4" y="-1598.3" font-family="Times-Roman" font-size="14.00">updated_by (FK→users)</text>
<text text-anchor="start" x="1154.4" y="-1583.3" font-family="Times-Roman" font-size="14.00">order_id (FK→orders)</text>
<text text-anchor="start" x="1154.4" y="-1568.3" font-family="Times-Roman" font-size="14.00">service_record_id (FK→service_records)</text>
<text text-anchor="start" x="1154.4" y="-1553.3" font-family="Times-Roman" font-size="14.00">payment_stage_id (FK→payment_stages)</text>
<text text-anchor="start" x="1154.4" y="-1538.3" font-family="Times-Roman" font-size="14.00">customer_name</text>
<text text-anchor="start" x="1154.4" y="-1523.3" font-family="Times-Roman" font-size="14.00">document_type</text>
<text text-anchor="start" x="1154.4" y="-1508.3" font-family="Times-Roman" font-size="14.00">document_name</text>
<text text-anchor="start" x="1154.4" y="-1493.3" font-family="Times-Roman" font-size="14.00">issue_date</text>
<text text-anchor="start" x="1154.4" y="-1478.3" font-family="Times-Roman" font-size="14.00">expiry_date</text>
<text text-anchor="middle" x="1296.9" y="-1463.3" font-family="Times-Roman" font-size="14.00">...</text>
</g>
<!-- contacts&#45;&gt;customer_documents -->
<g id="edge4" class="edge">
<title>contacts&#45;&gt;customer_documents</title>
<path fill="none" stroke="black" d="M947.32,-1755.49C969.52,-1740.91 993.57,-1725.13 1017.81,-1709.21"/>
<polygon fill="black" stroke="black" points="1019.95,-1711.99 1026.39,-1703.58 1016.11,-1706.14 1019.95,-1711.99"/>
<text text-anchor="middle" x="1036.4" y="-1725.8" font-family="Times-Roman" font-size="14.00">customer_id</text>
</g>
<!-- customer_documents&#45;&gt;customers -->
<g id="edge35" class="edge">
<title>customer_documents&#45;&gt;customers</title>
<path fill="none" stroke="black" d="M980.03,-1472.79C952.88,-1452.99 927.83,-1430.14 907.9,-1404 872.01,-1356.94 919.7,-1313.67 874.9,-1275 845.64,-1249.75 740.21,-1262.1 701.9,-1257 611.29,-1244.93 570.91,-1280.3 498.9,-1224 426.9,-1167.71 482.32,-1099.82 417.9,-1035 377.91,-994.77 331.98,-1031.45 300.9,-984 236.61,-885.85 292.56,-837.04 300.9,-720 301.71,-708.66 352.65,-324.49 358.9,-315 372.35,-294.57 390.34,-277.38 410.44,-262.97"/>
<polygon fill="black" stroke="black" points="412.61,-265.73 418.87,-257.18 408.64,-259.96 412.61,-265.73"/>
<text text-anchor="middle" x="343.4" y="-848.3" font-family="Times-Roman" font-size="14.00">customer_id</text>
</g>
<!-- customer_documents&#45;&gt;customer_sources -->
<g id="edge33" class="edge">
<title>customer_documents&#45;&gt;customer_sources</title>
<path fill="none" stroke="black" d="M1447.73,-1556.06C1579.08,-1529.1 1716.9,-1469.96 1716.9,-1340.5 1716.9,-1340.5 1716.9,-1340.5 1716.9,-1008.5 1716.9,-879.83 1724.81,-844.65 1692.9,-720 1690.73,-711.52 1687.84,-710.24 1684.9,-702 1594.61,-449.39 1716.1,-308.17 1524.9,-120 1469.19,-65.17 968.23,-44.95 726.82,-38.35"/>
<polygon fill="black" stroke="black" points="726.68,-34.84 716.59,-38.07 726.49,-41.84 726.68,-34.84"/>
<text text-anchor="middle" x="1727.4" y="-690.8" font-family="Times-Roman" font-size="14.00">customer_id</text>
</g>
<!-- customer_documents&#45;&gt;customer_channels -->
<g id="edge34" class="edge">
<title>customer_documents&#45;&gt;customer_channels</title>
<path fill="none" stroke="black" d="M1447.67,-1560.12C1545.06,-1541.77 1653.28,-1506.03 1730.9,-1437 1765.46,-1406.26 1769.9,-1386.76 1769.9,-1340.5 1769.9,-1340.5 1769.9,-1340.5 1769.9,-851 1769.9,-612.76 1803.05,-551.69 1775.9,-315 1766.09,-229.53 1738.69,-132.51 1721.81,-78.2"/>
<polygon fill="black" stroke="black" points="1725.13,-77.07 1718.79,-68.57 1718.45,-79.16 1725.13,-77.07"/>
<text text-anchor="middle" x="1817.4" y="-690.8" font-family="Times-Roman" font-size="14.00">customer_id</text>
</g>
<!-- service_records -->
<g id="node6" class="node">
<title>service_records</title>
<polygon fill="lightgreen" stroke="black" points="788.4,-720.5 788.4,-983.5 1207.4,-983.5 1207.4,-720.5 788.4,-720.5"/>
<text text-anchor="middle" x="850.4" y="-848.3" font-family="Times-Roman" font-size="14.00">service_records</text>
<polyline fill="none" stroke="black" points="912.4,-720.5 912.4,-983.5 "/>
<text text-anchor="start" x="920.4" y="-968.3" font-family="Times-Roman" font-size="14.00">id (PK)</text>
<text text-anchor="start" x="920.4" y="-953.3" font-family="Times-Roman" font-size="14.00">customer_id (FK→customer_sources)</text>
<text text-anchor="start" x="920.4" y="-938.3" font-family="Times-Roman" font-size="14.00">customer_id (FK→customer_documents)</text>
<text text-anchor="start" x="920.4" y="-923.3" font-family="Times-Roman" font-size="14.00">customer_id (FK→customer_channels)</text>
<text text-anchor="start" x="920.4" y="-908.3" font-family="Times-Roman" font-size="14.00">customer_id (FK→customers)</text>
<text text-anchor="start" x="920.4" y="-893.3" font-family="Times-Roman" font-size="14.00">product_id (FK→products)</text>
<text text-anchor="start" x="920.4" y="-878.3" font-family="Times-Roman" font-size="14.00">contact_id (FK→contacts)</text>
<text text-anchor="start" x="920.4" y="-863.3" font-family="Times-Roman" font-size="14.00">service_type_id (FK→service_types)</text>
<text text-anchor="start" x="920.4" y="-848.3" font-family="Times-Roman" font-size="14.00">sales_user_id (FK→users)</text>
<text text-anchor="start" x="920.4" y="-833.3" font-family="Times-Roman" font-size="14.00">referral_customer_id (FK→customers)</text>
<text text-anchor="start" x="920.4" y="-818.3" font-family="Times-Roman" font-size="14.00">created_by (FK→users)</text>
<text text-anchor="start" x="920.4" y="-803.3" font-family="Times-Roman" font-size="14.00">updated_by (FK→users)</text>
<text text-anchor="start" x="920.4" y="-788.3" font-family="Times-Roman" font-size="14.00">service_record_id (FK→service_records)</text>
<text text-anchor="start" x="920.4" y="-773.3" font-family="Times-Roman" font-size="14.00">status</text>
<text text-anchor="start" x="920.4" y="-758.3" font-family="Times-Roman" font-size="14.00">service_name</text>
<text text-anchor="start" x="920.4" y="-743.3" font-family="Times-Roman" font-size="14.00">expected_start_date</text>
<text text-anchor="middle" x="1059.9" y="-728.3" font-family="Times-Roman" font-size="14.00">...</text>
</g>
<!-- customer_documents&#45;&gt;service_records -->
<g id="edge41" class="edge">
<title>customer_documents&#45;&gt;service_records</title>
<path fill="none" stroke="black" d="M1181.9,-1455.22C1167.21,-1399.95 1149.24,-1334.05 1131.9,-1275 1104.21,-1180.74 1070.77,-1075.42 1044.22,-993.57"/>
<polygon fill="black" stroke="black" points="1047.44,-992.14 1041.02,-983.71 1040.78,-994.3 1047.44,-992.14"/>
<text text-anchor="middle" x="1185.9" y="-1245.8" font-family="Times-Roman" font-size="14.00">service_record_id</text>
</g>
<!-- orders -->
<g id="node8" class="node">
<title>orders</title>
<polygon fill="lightyellow" stroke="black" points="507.9,-1035.5 507.9,-1223.5 863.9,-1223.5 863.9,-1035.5 507.9,-1035.5"/>
<text text-anchor="middle" x="538.4" y="-1125.8" font-family="Times-Roman" font-size="14.00">orders</text>
<polyline fill="none" stroke="black" points="568.9,-1035.5 568.9,-1223.5 "/>
<text text-anchor="start" x="576.9" y="-1208.3" font-family="Times-Roman" font-size="14.00">id (PK)</text>
<text text-anchor="start" x="576.9" y="-1193.3" font-family="Times-Roman" font-size="14.00">customer_id (FK→customer_sources)</text>
<text text-anchor="start" x="576.9" y="-1178.3" font-family="Times-Roman" font-size="14.00">customer_id (FK→customer_documents)</text>
<text text-anchor="start" x="576.9" y="-1163.3" font-family="Times-Roman" font-size="14.00">customer_id (FK→customer_channels)</text>
<text text-anchor="start" x="576.9" y="-1148.3" font-family="Times-Roman" font-size="14.00">customer_id (FK→customers)</text>
<text text-anchor="start" x="576.9" y="-1133.3" font-family="Times-Roman" font-size="14.00">product_id (FK→products)</text>
<text text-anchor="start" x="576.9" y="-1118.3" font-family="Times-Roman" font-size="14.00">service_record_id (FK→service_records)</text>
<text text-anchor="start" x="576.9" y="-1103.3" font-family="Times-Roman" font-size="14.00">product_name</text>
<text text-anchor="start" x="576.9" y="-1088.3" font-family="Times-Roman" font-size="14.00">sales_username</text>
<text text-anchor="start" x="576.9" y="-1073.3" font-family="Times-Roman" font-size="14.00">total_amount</text>
<text text-anchor="start" x="576.9" y="-1058.3" font-family="Times-Roman" font-size="14.00">currency_code</text>
<text text-anchor="middle" x="716.4" y="-1043.3" font-family="Times-Roman" font-size="14.00">...</text>
</g>
<!-- customer_documents&#45;&gt;orders -->
<g id="edge40" class="edge">
<title>customer_documents&#45;&gt;orders</title>
<path fill="none" stroke="black" d="M1106.2,-1455.36C1094.6,-1438.75 1083.8,-1421.42 1074.9,-1404 1047.81,-1350.99 1078.47,-1319.47 1038.9,-1275 995.65,-1226.4 933.61,-1193.82 873.56,-1172.12"/>
<polygon fill="black" stroke="black" points="874.54,-1168.76 863.95,-1168.73 872.22,-1175.36 874.54,-1168.76"/>
<text text-anchor="middle" x="1103.4" y="-1335.8" font-family="Times-Roman" font-size="14.00">order_id</text>
</g>
<!-- payment_stages -->
<g id="node9" class="node">
<title>payment_stages</title>
<polygon fill="lightyellow" stroke="black" points="573.9,-1275.5 573.9,-1403.5 865.9,-1403.5 865.9,-1275.5 573.9,-1275.5"/>
<text text-anchor="middle" x="639.4" y="-1335.8" font-family="Times-Roman" font-size="14.00">payment_stages</text>
<polyline fill="none" stroke="black" points="704.9,-1275.5 704.9,-1403.5 "/>
<text text-anchor="start" x="712.9" y="-1388.3" font-family="Times-Roman" font-size="14.00">id (PK)</text>
<text text-anchor="start" x="712.9" y="-1373.3" font-family="Times-Roman" font-size="14.00">order_id (FK→orders)</text>
<text text-anchor="start" x="712.9" y="-1358.3" font-family="Times-Roman" font-size="14.00">stage_name</text>
<text text-anchor="start" x="712.9" y="-1343.3" font-family="Times-Roman" font-size="14.00">amount</text>
<text text-anchor="start" x="712.9" y="-1328.3" font-family="Times-Roman" font-size="14.00">paid_amount</text>
<text text-anchor="start" x="712.9" y="-1313.3" font-family="Times-Roman" font-size="14.00">remaining_amount</text>
<text text-anchor="start" x="712.9" y="-1298.3" font-family="Times-Roman" font-size="14.00">currency_code</text>
<text text-anchor="middle" x="785.4" y="-1283.3" font-family="Times-Roman" font-size="14.00">...</text>
</g>
<!-- customer_documents&#45;&gt;payment_stages -->
<g id="edge42" class="edge">
<title>customer_documents&#45;&gt;payment_stages</title>
<path fill="none" stroke="black" d="M980.3,-1505.05C926.38,-1488.36 869.2,-1470.88 815.9,-1455 787.99,-1446.68 774.01,-1457.06 752.9,-1437 745.85,-1430.3 740.3,-1422.04 735.95,-1413.18"/>
<polygon fill="black" stroke="black" points="739.04,-1411.54 731.82,-1403.79 732.64,-1414.35 739.04,-1411.54"/>
<text text-anchor="middle" x="816.4" y="-1425.8" font-family="Times-Roman" font-size="14.00">payment_stage_id</text>
</g>
<!-- users -->
<g id="node11" class="node">
<title>users</title>
<polygon fill="lightgray" stroke="black" points="1348.4,-158 1348.4,-226 1515.4,-226 1515.4,-158 1348.4,-158"/>
<text text-anchor="middle" x="1375.9" y="-188.3" font-family="Times-Roman" font-size="14.00">users</text>
<polyline fill="none" stroke="black" points="1403.4,-158 1403.4,-226 "/>
<text text-anchor="start" x="1411.4" y="-210.8" font-family="Times-Roman" font-size="14.00">id (PK)</text>
<text text-anchor="start" x="1411.4" y="-195.8" font-family="Times-Roman" font-size="14.00">username</text>
<text text-anchor="start" x="1411.4" y="-180.8" font-family="Times-Roman" font-size="14.00">display_name</text>
<text text-anchor="middle" x="1459.4" y="-165.8" font-family="Times-Roman" font-size="14.00">...</text>
</g>
<!-- customer_documents&#45;&gt;users -->
<g id="edge37" class="edge">
<title>customer_documents&#45;&gt;users</title>
<path fill="none" stroke="black" d="M1341.44,-1455.28C1364.77,-1421.06 1381.9,-1381.85 1381.9,-1340.5 1381.9,-1340.5 1381.9,-1340.5 1381.9,-1008.5 1381.9,-880.13 1363.64,-844.25 1395.9,-720 1422.09,-619.14 1503.05,-610.8 1493.9,-507 1485.25,-408.89 1458.85,-296.11 1443.43,-236.01"/>
<polygon fill="black" stroke="black" points="1446.77,-234.93 1440.87,-226.12 1439.99,-236.68 1446.77,-234.93"/>
<text text-anchor="middle" x="1434.4" y="-848.3" font-family="Times-Roman" font-size="14.00">verified_by</text>
</g>
<!-- customer_documents&#45;&gt;users -->
<g id="edge38" class="edge">
<title>customer_documents&#45;&gt;users</title>
<path fill="none" stroke="black" d="M1443.03,-1455.37C1473.74,-1423.6 1494.9,-1385.41 1494.9,-1340.5 1494.9,-1340.5 1494.9,-1340.5 1494.9,-1008.5 1494.9,-854.39 1531.91,-463.56 1490.9,-315 1483.19,-287.07 1469.24,-257.78 1456.84,-234.9"/>
<polygon fill="black" stroke="black" points="1459.91,-233.21 1452.01,-226.15 1453.78,-236.59 1459.91,-233.21"/>
<text text-anchor="middle" x="1543.9" y="-848.3" font-family="Times-Roman" font-size="14.00">created_by</text>
</g>
<!-- customer_documents&#45;&gt;users -->
<g id="edge39" class="edge">
<title>customer_documents&#45;&gt;users</title>
<path fill="none" stroke="black" d="M1447.62,-1521.87C1532.01,-1486.31 1606.9,-1429.64 1606.9,-1340.5 1606.9,-1340.5 1606.9,-1340.5 1606.9,-1008.5 1606.9,-697.52 1616.56,-608.55 1513.9,-315 1503.62,-285.61 1484.51,-256.52 1467.32,-234.12"/>
<polygon fill="black" stroke="black" points="1470.02,-231.89 1461.1,-226.18 1464.52,-236.21 1470.02,-231.89"/>
<text text-anchor="middle" x="1647.9" y="-848.3" font-family="Times-Roman" font-size="14.00">updated_by</text>
</g>
<!-- service_records&#45;&gt;customers -->
<g id="edge17" class="edge">
<title>service_records&#45;&gt;customers</title>
<path fill="none" stroke="black" d="M1028.77,-720.15C1035.34,-659.95 1031.23,-590.8 993.9,-540 978.67,-519.27 955.03,-542.03 938.9,-522 880.91,-449.97 974.14,-388.4 917.9,-315 885.54,-272.77 836.7,-245.16 786.86,-227.1"/>
<polygon fill="black" stroke="black" points="787.81,-223.72 777.22,-223.73 785.5,-230.33 787.81,-223.72"/>
<text text-anchor="middle" x="981.4" y="-510.8" font-family="Times-Roman" font-size="14.00">customer_id</text>
</g>
<!-- service_records&#45;&gt;customers -->
<g id="edge28" class="edge">
<title>service_records&#45;&gt;customers</title>
<path fill="none" stroke="black" d="M1029.43,-720.46C1030.38,-714.24 1031.22,-708.06 1031.9,-702 1037.12,-655.63 1061.4,-318.16 1031.9,-282 1000.34,-243.32 889.21,-220.98 787.31,-208.36"/>
<polygon fill="black" stroke="black" points="787.51,-204.86 777.17,-207.13 786.67,-211.81 787.51,-204.86"/>
<text text-anchor="middle" x="1115.9" y="-510.8" font-family="Times-Roman" font-size="14.00">referral_customer_id</text>
</g>
<!-- service_records&#45;&gt;contacts -->
<g id="edge19" class="edge">
<title>service_records&#45;&gt;contacts</title>
<path fill="none" stroke="black" d="M788.2,-972.08C778.07,-976.36 767.94,-980.37 757.9,-984 647.57,-1023.9 586.82,-957.32 498.9,-1035 414.74,-1109.35 440.44,-1164.6 419.9,-1275 402.45,-1368.75 353.43,-1627.91 410.9,-1704 440.48,-1743.17 545.98,-1773.46 644.94,-1794.07"/>
<polygon fill="black" stroke="black" points="644.3,-1797.51 654.8,-1796.09 645.71,-1790.65 644.3,-1797.51"/>
<text text-anchor="middle" x="455.4" y="-1335.8" font-family="Times-Roman" font-size="14.00">contact_id</text>
</g>
<!-- service_records&#45;&gt;customer_sources -->
<g id="edge14" class="edge">
<title>service_records&#45;&gt;customer_sources</title>
<path fill="none" stroke="black" d="M788.24,-731.83C778.1,-727.57 767.96,-723.59 757.9,-720 642.9,-678.91 586.78,-740.67 487.9,-669 434.91,-630.59 463.9,-585.54 416.9,-540 381.07,-505.28 342.96,-531.54 316.9,-489 228.56,-344.78 288.96,-238.23 409.9,-120 429.84,-100.51 455.06,-85.05 480.5,-72.98"/>
<polygon fill="black" stroke="black" points="482.24,-76.03 489.87,-68.68 479.32,-69.67 482.24,-76.03"/>
<text text-anchor="middle" x="359.4" y="-398.3" font-family="Times-Roman" font-size="14.00">customer_id</text>
</g>
<!-- service_records&#45;&gt;customer_channels -->
<g id="edge16" class="edge">
<title>service_records&#45;&gt;customer_channels</title>
<path fill="none" stroke="black" d="M1207.6,-786.78C1339.57,-735.71 1502.75,-651.06 1599.9,-522 1702.63,-385.53 1711.14,-170.19 1709.66,-78.81"/>
<polygon fill="black" stroke="black" points="1713.15,-78.47 1709.44,-68.55 1706.15,-78.62 1713.15,-78.47"/>
<text text-anchor="middle" x="1729.4" y="-398.3" font-family="Times-Roman" font-size="14.00">customer_id</text>
</g>
<!-- service_records&#45;&gt;customer_documents -->
<g id="edge15" class="edge">
<title>service_records&#45;&gt;customer_documents</title>
<path fill="none" stroke="black" d="M1139.27,-983.84C1144.04,-989.83 1148.61,-995.89 1152.9,-1002 1220.02,-1097.57 1235.59,-1127.77 1259.9,-1242 1274.05,-1308.51 1266.12,-1383.39 1253.12,-1445.6"/>
<polygon fill="black" stroke="black" points="1249.68,-1444.96 1251,-1455.47 1256.53,-1446.43 1249.68,-1444.96"/>
<text text-anchor="middle" x="1305.4" y="-1245.8" font-family="Times-Roman" font-size="14.00">customer_id</text>
</g>
<!-- service_records&#45;&gt;service_records -->
<g id="edge31" class="edge">
<title>service_records&#45;&gt;service_records</title>
<path fill="none" stroke="black" d="M1207.6,-871.34C1218.77,-866.6 1225.4,-860.15 1225.4,-852 1225.4,-846.4 1222.27,-841.6 1216.68,-837.61"/>
<polygon fill="black" stroke="black" points="1218.06,-834.37 1207.6,-832.66 1214.71,-840.52 1218.06,-834.37"/>
<text text-anchor="middle" x="1285.4" y="-848.3" font-family="Times-Roman" font-size="14.00">service_record_id</text>
</g>
<!-- service_types -->
<g id="node7" class="node">
<title>service_types</title>
<polygon fill="lightgreen" stroke="black" points="411.4,-315.5 411.4,-488.5 784.4,-488.5 784.4,-315.5 411.4,-315.5"/>
<text text-anchor="middle" x="466.9" y="-398.3" font-family="Times-Roman" font-size="14.00">service_types</text>
<polyline fill="none" stroke="black" points="522.4,-315.5 522.4,-488.5 "/>
<text text-anchor="start" x="530.4" y="-473.3" font-family="Times-Roman" font-size="14.00">id (PK)</text>
<text text-anchor="start" x="530.4" y="-458.3" font-family="Times-Roman" font-size="14.00">service_type_id (FK→service_types)</text>
<text text-anchor="start" x="530.4" y="-443.3" font-family="Times-Roman" font-size="14.00">customer_id (FK→customers)</text>
<text text-anchor="start" x="530.4" y="-428.3" font-family="Times-Roman" font-size="14.00">product_id (FK→products)</text>
<text text-anchor="start" x="530.4" y="-413.3" font-family="Times-Roman" font-size="14.00">contact_id (FK→contacts)</text>
<text text-anchor="start" x="530.4" y="-398.3" font-family="Times-Roman" font-size="14.00">sales_user_id (FK→users)</text>
<text text-anchor="start" x="530.4" y="-383.3" font-family="Times-Roman" font-size="14.00">code</text>
<text text-anchor="start" x="530.4" y="-368.3" font-family="Times-Roman" font-size="14.00">name</text>
<text text-anchor="start" x="530.4" y="-353.3" font-family="Times-Roman" font-size="14.00">name_en</text>
<text text-anchor="start" x="530.4" y="-338.3" font-family="Times-Roman" font-size="14.00">updated_at</text>
<text text-anchor="middle" x="653.4" y="-323.3" font-family="Times-Roman" font-size="14.00">...</text>
</g>
<!-- service_records&#45;&gt;service_types -->
<g id="edge26" class="edge">
<title>service_records&#45;&gt;service_types</title>
<path fill="none" stroke="black" d="M913.25,-720.28C903.76,-703.34 894.71,-685.98 886.9,-669 861.7,-614.22 883.26,-586.52 844.9,-540 830.02,-521.96 812.12,-505.88 792.83,-491.67"/>
<polygon fill="black" stroke="black" points="794.65,-488.67 784.48,-485.69 790.57,-494.36 794.65,-488.67"/>
<text text-anchor="middle" x="940.4" y="-600.8" font-family="Times-Roman" font-size="14.00">service_type_id</text>
</g>
<!-- service_records&#45;&gt;users -->
<g id="edge27" class="edge">
<title>service_records&#45;&gt;users</title>
<path fill="none" stroke="black" d="M1207.46,-721.36C1213.6,-715.1 1219.43,-708.65 1224.9,-702 1256.43,-663.65 1373.57,-351.06 1416.23,-235.63"/>
<polygon fill="black" stroke="black" points="1419.59,-236.64 1419.77,-226.05 1413.02,-234.22 1419.59,-236.64"/>
<text text-anchor="middle" x="1359.4" y="-510.8" font-family="Times-Roman" font-size="14.00">sales_user_id</text>
</g>
<!-- service_records&#45;&gt;users -->
<g id="edge29" class="edge">
<title>service_records&#45;&gt;users</title>
<path fill="none" stroke="black" d="M1207.44,-745.22C1289,-691.17 1371.92,-616.61 1409.9,-522 1448.48,-425.88 1443.52,-301.29 1437.29,-236.49"/>
<polygon fill="black" stroke="black" points="1440.74,-235.83 1436.24,-226.24 1433.77,-236.54 1440.74,-235.83"/>
<text text-anchor="middle" x="1451.9" y="-510.8" font-family="Times-Roman" font-size="14.00">created_by</text>
</g>
<!-- service_records&#45;&gt;users -->
<g id="edge30" class="edge">
<title>service_records&#45;&gt;users</title>
<path fill="none" stroke="black" d="M1073.93,-720.37C1159.54,-573.79 1290.35,-351.62 1317.9,-315 1339.68,-286.05 1367.36,-256.29 1389.99,-233.41"/>
<polygon fill="black" stroke="black" points="1392.57,-235.78 1397.15,-226.23 1387.61,-230.84 1392.57,-235.78"/>
<text text-anchor="middle" x="1238.9" y="-510.8" font-family="Times-Roman" font-size="14.00">updated_by</text>
</g>
<!-- products -->
<g id="node12" class="node">
<title>products</title>
<polygon fill="lightgray" stroke="black" points="497.4,-540.5 497.4,-668.5 836.4,-668.5 836.4,-540.5 497.4,-540.5"/>
<text text-anchor="middle" x="535.9" y="-600.8" font-family="Times-Roman" font-size="14.00">products</text>
<polyline fill="none" stroke="black" points="574.4,-540.5 574.4,-668.5 "/>
<text text-anchor="start" x="582.4" y="-653.3" font-family="Times-Roman" font-size="14.00">id (PK)</text>
<text text-anchor="start" x="582.4" y="-638.3" font-family="Times-Roman" font-size="14.00">service_type_id (FK→service_types)</text>
<text text-anchor="start" x="582.4" y="-623.3" font-family="Times-Roman" font-size="14.00">owner_name</text>
<text text-anchor="start" x="582.4" y="-608.3" font-family="Times-Roman" font-size="14.00">created_by_name</text>
<text text-anchor="start" x="582.4" y="-593.3" font-family="Times-Roman" font-size="14.00">updated_by_external</text>
<text text-anchor="start" x="582.4" y="-578.3" font-family="Times-Roman" font-size="14.00">updated_by_name</text>
<text text-anchor="start" x="582.4" y="-563.3" font-family="Times-Roman" font-size="14.00">updated_at_src</text>
<text text-anchor="middle" x="705.4" y="-548.3" font-family="Times-Roman" font-size="14.00">...</text>
</g>
<!-- service_records&#45;&gt;products -->
<g id="edge18" class="edge">
<title>service_records&#45;&gt;products</title>
<path fill="none" stroke="black" d="M810.68,-720.48C802.27,-714.28 793.97,-708.1 785.9,-702 774.52,-693.4 762.68,-684.17 751.08,-674.95"/>
<polygon fill="black" stroke="black" points="753.1,-672.08 743.1,-668.58 748.73,-677.55 753.1,-672.08"/>
<text text-anchor="middle" x="822.4" y="-690.8" font-family="Times-Roman" font-size="14.00">product_id</text>
</g>
<!-- service_types&#45;&gt;customers -->
<g id="edge21" class="edge">
<title>service_types&#45;&gt;customers</title>
<path fill="none" stroke="black" d="M597.9,-315.5C597.9,-301.75 597.9,-287.55 597.9,-273.91"/>
<polygon fill="black" stroke="black" points="601.4,-273.61 597.9,-263.61 594.4,-273.61 601.4,-273.61"/>
<text text-anchor="middle" x="640.4" y="-285.8" font-family="Times-Roman" font-size="14.00">customer_id</text>
</g>
<!-- service_types&#45;&gt;contacts -->
<g id="edge23" class="edge">
<title>service_types&#45;&gt;contacts</title>
<path fill="none" stroke="black" d="M520.09,-488.75C508.04,-504.97 496.69,-522.4 487.9,-540 461.44,-592.94 470.18,-611.83 454.9,-669 400.63,-872.08 342.9,-918.3 342.9,-1128.5 342.9,-1580.5 342.9,-1580.5 342.9,-1580.5 342.9,-1659.65 355.23,-1705.63 427.9,-1737 495.92,-1766.36 574.57,-1786.42 644.81,-1799.94"/>
<polygon fill="black" stroke="black" points="644.19,-1803.38 654.66,-1801.8 645.49,-1796.51 644.19,-1803.38"/>
<text text-anchor="middle" x="378.4" y="-1125.8" font-family="Times-Roman" font-size="14.00">contact_id</text>
</g>
<!-- service_types&#45;&gt;service_types -->
<g id="edge20" class="edge">
<title>service_types&#45;&gt;service_types</title>
<path fill="none" stroke="black" d="M784.67,-416.45C795.76,-413 802.4,-408.18 802.4,-402 802.4,-397.85 799.4,-394.31 794.07,-391.39"/>
<polygon fill="black" stroke="black" points="795.26,-388.09 784.67,-387.55 792.61,-394.57 795.26,-388.09"/>
<text text-anchor="middle" x="855.9" y="-398.3" font-family="Times-Roman" font-size="14.00">service_type_id</text>
</g>
<!-- service_types&#45;&gt;users -->
<g id="edge24" class="edge">
<title>service_types&#45;&gt;users</title>
<path fill="none" stroke="black" d="M784.55,-354.45C956.58,-311.54 1204.84,-249.63 1338.41,-216.32"/>
<polygon fill="black" stroke="black" points="1339.36,-219.69 1348.21,-213.87 1337.66,-212.89 1339.36,-219.69"/>
<text text-anchor="middle" x="1111.4" y="-285.8" font-family="Times-Roman" font-size="14.00">sales_user_id</text>
</g>
<!-- service_types&#45;&gt;products -->
<g id="edge22" class="edge">
<title>service_types&#45;&gt;products</title>
<path fill="none" stroke="black" d="M575.48,-488.69C575.61,-500.16 577.44,-511.55 581.9,-522 583.3,-525.3 584.92,-528.52 586.7,-531.68"/>
<polygon fill="black" stroke="black" points="583.87,-533.75 592.15,-540.36 589.8,-530.03 583.87,-533.75"/>
<text text-anchor="middle" x="618.4" y="-510.8" font-family="Times-Roman" font-size="14.00">product_id</text>
</g>
<!-- orders&#45;&gt;customers -->
<g id="edge10" class="edge">
<title>orders&#45;&gt;customers</title>
<path fill="none" stroke="black" d="M596.07,-1035.18C519.16,-948.3 414.06,-811.16 369.9,-669 346.46,-593.57 358.77,-381.17 401.9,-315 412.9,-298.12 427.14,-283.16 442.92,-270.03"/>
<polygon fill="black" stroke="black" points="445.17,-272.71 450.79,-263.73 440.8,-267.25 445.17,-272.71"/>
<text text-anchor="middle" x="412.4" y="-600.8" font-family="Times-Roman" font-size="14.00">customer_id</text>
</g>
<!-- orders&#45;&gt;customer_sources -->
<g id="edge7" class="edge">
<title>orders&#45;&gt;customer_sources</title>
<path fill="none" stroke="black" d="M507.71,-1058.47C453.62,-1033.93 403.75,-1006.83 385.9,-984 312.07,-889.59 409.21,-810.73 330.9,-720 315.74,-702.44 303.08,-711.47 281.9,-702 253.4,-689.25 245.87,-686.32 219.9,-669 134.26,-611.87 84.9,-615.07 40.9,-522 -37.48,-356.21 0.66,-246.01 133.9,-120 181.24,-75.23 349.05,-53.47 469.24,-43.41"/>
<polygon fill="black" stroke="black" points="469.58,-46.89 479.26,-42.59 469.01,-39.91 469.58,-46.89"/>
<text text-anchor="middle" x="83.4" y="-510.8" font-family="Times-Roman" font-size="14.00">customer_id</text>
</g>
<!-- orders&#45;&gt;customer_channels -->
<g id="edge9" class="edge">
<title>orders&#45;&gt;customer_channels</title>
<path fill="none" stroke="black" d="M614.83,-1035.31C496.57,-879.58 269.85,-577.96 244.9,-522 200.6,-422.65 148.58,-379.46 196.9,-282 249.73,-175.44 301,-167.83 409.9,-120 485.97,-86.59 511.33,-96.27 593.9,-87 946.47,-47.41 1365.09,-38.11 1574.55,-36.02"/>
<polygon fill="black" stroke="black" points="1574.71,-39.52 1584.67,-35.92 1574.64,-32.52 1574.71,-39.52"/>
<text text-anchor="middle" x="287.4" y="-510.8" font-family="Times-Roman" font-size="14.00">customer_id</text>
</g>
<!-- orders&#45;&gt;customer_documents -->
<g id="edge8" class="edge">
<title>orders&#45;&gt;customer_documents</title>
<path fill="none" stroke="black" d="M855.64,-1223.56C874.95,-1238.96 893.01,-1256.14 907.9,-1275 945.61,-1322.78 916.53,-1355.96 953.9,-1404 966.23,-1419.86 980.42,-1434.77 995.68,-1448.69"/>
<polygon fill="black" stroke="black" points="993.46,-1451.39 1003.25,-1455.44 998.11,-1446.17 993.46,-1451.39"/>
<text text-anchor="middle" x="996.4" y="-1335.8" font-family="Times-Roman" font-size="14.00">customer_id</text>
</g>
<!-- orders&#45;&gt;service_records -->
<g id="edge25" class="edge">
<title>orders&#45;&gt;service_records</title>
<path fill="none" stroke="black" d="M791.53,-1035.23C807.85,-1020.81 825.01,-1005.67 842.15,-990.52"/>
<polygon fill="black" stroke="black" points="844.85,-992.81 850.03,-983.57 840.22,-987.57 844.85,-992.81"/>
<text text-anchor="middle" x="883.9" y="-1005.8" font-family="Times-Roman" font-size="14.00">service_record_id</text>
</g>
<!-- orders&#45;&gt;products -->
<g id="edge11" class="edge">
<title>orders&#45;&gt;products</title>
<path fill="none" stroke="black" d="M682.51,-1035.3C678.81,-933.4 672.95,-772.21 669.57,-678.9"/>
<polygon fill="black" stroke="black" points="673.06,-678.56 669.19,-668.7 666.06,-678.82 673.06,-678.56"/>
<text text-anchor="middle" x="717.4" y="-848.3" font-family="Times-Roman" font-size="14.00">product_id</text>
</g>
<!-- payment_stages&#45;&gt;orders -->
<g id="edge36" class="edge">
<title>payment_stages&#45;&gt;orders</title>
<path fill="none" stroke="black" d="M709.56,-1275.25C707.42,-1262.17 705.12,-1248.06 702.81,-1233.98"/>
<polygon fill="black" stroke="black" points="706.21,-1233.04 701.14,-1223.73 699.3,-1234.17 706.21,-1233.04"/>
<text text-anchor="middle" x="735.4" y="-1245.8" font-family="Times-Roman" font-size="14.00">order_id</text>
</g>
<!-- payments -->
<g id="node10" class="node">
<title>payments</title>
<polygon fill="lightyellow" stroke="black" points="420.4,-1508 420.4,-1651 807.4,-1651 807.4,-1508 420.4,-1508"/>
<text text-anchor="middle" x="463.4" y="-1575.8" font-family="Times-Roman" font-size="14.00">payments</text>
<polyline fill="none" stroke="black" points="506.4,-1508 506.4,-1651 "/>
<text text-anchor="start" x="514.4" y="-1635.8" font-family="Times-Roman" font-size="14.00">id (PK)</text>
<text text-anchor="start" x="514.4" y="-1620.8" font-family="Times-Roman" font-size="14.00">order_id (FK→orders)</text>
<text text-anchor="start" x="514.4" y="-1605.8" font-family="Times-Roman" font-size="14.00">payment_stage_id (FK→payment_stages)</text>
<text text-anchor="start" x="514.4" y="-1590.8" font-family="Times-Roman" font-size="14.00">payment_type</text>
<text text-anchor="start" x="514.4" y="-1575.8" font-family="Times-Roman" font-size="14.00">amount</text>
<text text-anchor="start" x="514.4" y="-1560.8" font-family="Times-Roman" font-size="14.00">currency_code</text>
<text text-anchor="start" x="514.4" y="-1545.8" font-family="Times-Roman" font-size="14.00">payment_date</text>
<text text-anchor="start" x="514.4" y="-1530.8" font-family="Times-Roman" font-size="14.00">payer_name</text>
<text text-anchor="middle" x="656.9" y="-1515.8" font-family="Times-Roman" font-size="14.00">...</text>
</g>
<!-- payments&#45;&gt;orders -->
<g id="edge12" class="edge">
<title>payments&#45;&gt;orders</title>
<path fill="none" stroke="black" d="M558.19,-1507.78C516.07,-1445.14 471.24,-1351.97 507.9,-1275 515.34,-1259.38 525.38,-1244.9 536.93,-1231.62"/>
<polygon fill="black" stroke="black" points="539.77,-1233.69 543.9,-1223.94 534.59,-1228.99 539.77,-1233.69"/>
<text text-anchor="middle" x="536.4" y="-1335.8" font-family="Times-Roman" font-size="14.00">order_id</text>
</g>
<!-- payments&#45;&gt;payment_stages -->
<g id="edge32" class="edge">
<title>payments&#45;&gt;payment_stages</title>
<path fill="none" stroke="black" d="M593.41,-1507.81C589.12,-1479.71 589.35,-1447.96 602.9,-1422 604.78,-1418.4 606.9,-1414.93 609.22,-1411.58"/>
<polygon fill="black" stroke="black" points="612.09,-1413.58 615.38,-1403.51 606.53,-1409.34 612.09,-1413.58"/>
<text text-anchor="middle" x="666.4" y="-1425.8" font-family="Times-Roman" font-size="14.00">payment_stage_id</text>
</g>
<!-- products&#45;&gt;service_types -->
<g id="edge13" class="edge">
<title>products&#45;&gt;service_types</title>
<path fill="none" stroke="black" d="M665.75,-540.42C664.4,-529.12 662.25,-517.58 658.9,-507 657.97,-504.05 656.94,-501.1 655.83,-498.15"/>
<polygon fill="black" stroke="black" points="659.02,-496.71 652.02,-488.76 652.53,-499.34 659.02,-496.71"/>
<text text-anchor="middle" x="716.4" y="-510.8" font-family="Times-Roman" font-size="14.00">service_type_id</text>
</g>
<!-- organizations -->
<g id="node13" class="node">
<title>organizations</title>
<polygon fill="lightgray" stroke="black" points="1042.9,-1785.5 1042.9,-1868.5 1292.9,-1868.5 1292.9,-1785.5 1042.9,-1785.5"/>
<text text-anchor="middle" x="1097.9" y="-1823.3" font-family="Times-Roman" font-size="14.00">organizations</text>
<polyline fill="none" stroke="black" points="1152.9,-1785.5 1152.9,-1868.5 "/>
<text text-anchor="start" x="1160.9" y="-1853.3" font-family="Times-Roman" font-size="14.00">id (PK)</text>
<text text-anchor="start" x="1160.9" y="-1838.3" font-family="Times-Roman" font-size="14.00">name</text>
<text text-anchor="start" x="1160.9" y="-1823.3" font-family="Times-Roman" font-size="14.00">code</text>
<text text-anchor="start" x="1160.9" y="-1808.3" font-family="Times-Roman" font-size="14.00">organization_type</text>
<text text-anchor="middle" x="1222.9" y="-1793.3" font-family="Times-Roman" font-size="14.00">...</text>
</g>
</g>
</svg>
